<svg xmlns="http://www.w3.org/2000/svg" viewBox="0 0 29 26"><path d="M28.546.38a.637.637 0 0 0-.657-.115L1.765 10.8c-.267.106-.492.299-.643.55a1.39 1.39 0 0 0 .141 1.624c.192.219.447.367.727.423l7.186 1.454v8.213c0 .317.092.628.264.891.173.264.418.468.704.587a1.509 1.509 0 0 0 1.183-.012c.19-.085.363-.207.507-.361l3.609-3.852 5.543 5.008c.281.256.642.397 1.017.399a1.526 1.526 0 0 0 1.148-.515c.18-.204.307-.452.365-.722l5.237-23.454a.684.684 0 0 0-.207-.651ZM1.956 12.09a.29.29 0 0 1 .04-.184.276.276 0 0 1 .144-.118L24.653 2.71 9.571 13.847l-7.38-1.493a.27.27 0 0 1-.163-.09.286.286 0 0 1-.071-.174Zm9.136 11.34a.501.501 0 0 1-.562.123.52.52 0 0 1-.234-.195.543.543 0 0 1-.09-.295v-7.478l4.458 4.024-3.572 3.82Zm11.419.815a.537.537 0 0 1-.123.241.514.514 0 0 1-.488.16.51.51 0 0 1-.236-.124L10.52 14.454 27.497 1.919l-4.986 22.326Z"/></svg>