<svg xmlns="http://www.w3.org/2000/svg" viewBox="0 0 34 34"><path d="m26.256 20.27-5.125-2.562a.64.64 0 0 0-.641.04l-2.665 1.778a7.138 7.138 0 0 1-3.349-3.35l1.778-2.664a.64.64 0 0 0 .04-.64L13.73 7.745a.64.64 0 0 0-.575-.355 5.766 5.766 0 0 0-5.765 5.765A13.467 13.467 0 0 0 20.844 26.61a5.766 5.766 0 0 0 5.765-5.765.64.64 0 0 0-.354-.574Zm-5.412 5.058A12.184 12.184 0 0 1 8.672 13.156a4.484 4.484 0 0 1 4.097-4.468l2.21 4.422-1.762 2.649a.64.64 0 0 0-.06.6 8.396 8.396 0 0 0 4.484 4.485.64.64 0 0 0 .602-.06l2.649-1.761 4.422 2.21a4.485 4.485 0 0 1-4.47 4.095ZM17 .984A16.015 16.015 0 0 0 2.991 24.768l-1.906 5.716a1.922 1.922 0 0 0 2.432 2.43l5.716-1.905A16.015 16.015 0 1 0 17 .984Zm0 30.75c-2.59.001-5.136-.681-7.378-1.978a.648.648 0 0 0-.524-.052l-5.987 1.995a.64.64 0 0 1-.81-.81l1.996-5.987a.64.64 0 0 0-.053-.524A14.734 14.734 0 1 1 17 31.734Z"/></svg>