<svg xmlns="http://www.w3.org/2000/svg" viewBox="0 0 119 24"><path d="M.923 1.232H22.92C15.59 11.71 11.746 17.492 11.383 18.58h11.536V24H0L11.537 6.653H.923v-5.42Zm31.841 18.276c-.052.406-1.557 4.392-1.693 4.492h-7.075v-.31l9.998-22.457h7.537L51.53 24h-7.075c-.098-.421-1.547-4.385-1.693-4.492h-9.997Zm8.306-4.026v-.31a857.518 857.518 0 0 0-3.23-7.9h-.154l-3.077 8.21h6.461Zm13.229-14.25h6.307l6.922 8.519 6.92-8.519h6.307V24h-6.922V10.99l-6.153 7.59-6.614-7.59V24h-6.768L54.3 1.232Zm38.455 0 6.923 8.519 6.766-8.519h6.307V24h-6.922V10.99l-6.153 7.59-6.614-7.59V24h-6.768V1.233h6.461Zm23.48 5.344a2.758 2.758 0 0 1-1.957-.818 2.787 2.787 0 0 1-.808-1.97A2.782 2.782 0 0 1 116.234 1a2.757 2.757 0 0 1 1.958.818 2.803 2.803 0 0 1 0 3.94 2.769 2.769 0 0 1-1.958.818Zm0-.62a2.142 2.142 0 0 0 1.523-.636 2.18 2.18 0 0 0 0-3.064 2.15 2.15 0 0 0-1.523-.637 2.148 2.148 0 0 0-1.522.637 2.176 2.176 0 0 0 0 3.063 2.15 2.15 0 0 0 1.522.637Zm-.032-1.901h-.356v.972h-.659V2.274h1.076c.323 0 .576.072.759.217.183.145.274.35.274.615a.9.9 0 0 1-.115.476.821.821 0 0 1-.362.307l.571 1.11v.028h-.706l-.482-.972Zm-.356-.512h.416c.125 0 .219-.033.283-.1a.388.388 0 0 0 .094-.277.388.388 0 0 0-.095-.278c-.065-.068-.158-.101-.281-.101h-.416l-.001.756Z"/></svg>